name C:\Users\u0101727\Documents\MyRepositories\upper-imu-dc\Results\main_tracking\Case_63\kinematics.mot
datacolumns 10
datarows 37
range 4.83000000 5.19000000
endheader 
time	clav_prot	clav_elev	scapula_abduction	scapula_elevation	scapula_upward_rot	scapula_winging	plane_elv	shoulder_elv	axial_rot	
          4.83000000	        -30.14539109	         -4.98753948	         -1.39665497	        -11.04813342	         46.89398487	         -1.22625522	         89.98389610	         56.04010234	        -36.59205167	
          4.84000000	        -30.09186681	         -5.10016308	         -1.64522767	        -11.08570001	         46.43157237	         -1.10726091	         89.99936896	         55.23415183	        -36.47618833	
          4.85000000	        -30.04467764	         -5.21289696	         -1.90084870	        -11.12303312	         45.97307798	         -0.98835307	         89.99519378	         54.42976201	        -36.34696750	
          4.86000000	        -30.00264462	         -5.32575398	         -2.16196192	        -11.16004202	         45.51792299	         -0.86928889	         89.97139613	         53.62793250	        -36.20609215	
          4.87000000	        -29.96446503	         -5.43883422	         -2.42681534	        -11.19668138	         45.06548821	         -0.74975607	         89.92801123	         52.82970986	        -36.05533086	
          4.88000000	        -29.92873930	         -5.55228801	         -2.69347974	        -11.23293055	         44.61515841	         -0.62940137	         89.86513381	         52.03617562	        -35.89645192	
          4.89000000	        -29.89399063	         -5.66631647	         -2.95985858	        -11.26879851	         44.16635251	         -0.50783617	         89.78293624	         51.24843132	        -35.73116955	
          4.90000000	        -29.85868070	         -5.78116104	         -3.22369360	        -11.30432109	         43.71855379	         -0.38464836	         89.68168562	         50.46758630	        -35.56109451	
          4.91000000	        -29.82122236	         -5.89709063	         -3.48256726	        -11.33955646	         43.27133834	         -0.25941604	         89.56175517	         49.69474841	        -35.38769238	
          4.92000000	        -29.77998851	         -6.01439044	         -3.73390525	        -11.37458098	         42.82439482	         -0.13171965	         89.42362352	         48.93102055	        -35.21226101	
          4.93000000	        -29.73331689	         -6.13334871	         -3.97497780	        -11.40948279	         42.37753706	         -0.00115486	         89.26785993	         48.17750105	        -35.03592333	
          4.94000000	        -29.67951382	         -6.25424610	         -4.20290482	        -11.44435641	         41.93070877	          0.13265618	         89.09509484	         47.43528735	        -34.85963630	
          4.95000000	        -29.61685924	         -6.37734215	         -4.41466580	        -11.47929514	         41.48398535	          0.27005105	         88.90598244	         46.70548009	        -34.68420745	
          4.96000000	        -29.54361738	         -6.50286087	         -4.60712030	        -11.51438291	         41.03757419	          0.41131134	         88.70116144	         45.98918560	        -34.51031646	
          4.97000000	        -29.45805434	         -6.63097222	         -4.77703957	        -11.54968369	         40.59181651	          0.55664231	         88.48121981	         45.28751250	        -34.33853348	
          4.98000000	        -29.35846258	         -6.76176934	         -4.92114948	        -11.58522846	         40.14719028	          0.70614838	         88.24666441	         44.60155887	        -34.16933243	
          4.99000000	        -29.24318868	         -6.89523995	         -5.03617883	        -11.62099807	         39.70431499	          0.85980396	         87.99789527	         43.93238713	        -34.00309182	
          5.00000000	        -29.11066086	         -7.03123662	         -5.11890735	        -11.65690525	         39.26395602	          1.01742351	         87.73518842	         43.28098357	        -33.84008808	
          5.01000000	        -28.95941278	         -7.16944836	         -5.16621708	        -11.69277542	         38.82701631	          1.17863483	         87.45869255	         42.64820027	        -33.68046981	
          5.02000000	        -28.78810107	         -7.30936639	         -5.17513740	        -11.72832190	         38.39452357	          1.34285090	         87.16848047	         42.03464296	        -33.52423511	
          5.03000000	        -28.59542693	         -7.45031164	         -5.14272454	        -11.76315833	         37.96760614	          1.50929172	         86.86460730	         41.44065497	        -33.37109829	
          5.04000000	        -28.37988518	         -7.59170640	         -5.06561468	        -11.79697701	         37.54745099	          1.67717042	         86.54701018	         40.86648795	        -33.22078106	
          5.05000000	        -28.14037851	         -7.73275577	         -4.94152533	        -11.82928138	         37.13476729	          1.84550799	         86.21644482	         40.31174324	        -33.07292385	
          5.06000000	        -27.87557051	         -7.87285373	         -4.76796828	        -11.85965805	         36.72993246	          2.01342130	         85.87466381	         39.77537196	        -32.92713481	
          5.07000000	        -27.58331118	         -8.01206248	         -4.54095934	        -11.88813383	         36.33328819	          2.18039791	         85.52234828	         39.25650756	        -32.78242087	
          5.08000000	        -27.26139815	         -8.14982120	         -4.25601125	        -11.91437749	         35.94587020	          2.34531137	         85.16322208	         38.75363595	        -32.63691801	
          5.09000000	        -26.90913802	         -8.28549116	         -3.91176800	        -11.93799586	         35.56795010	          2.50685268	         84.79640379	         38.26514623	        -32.49008454	
          5.10000000	        -26.52570687	         -8.41805012	         -3.50687824	        -11.95827378	         35.19957853	          2.66341306	         84.42260867	         37.78768337	        -32.34071547	
          5.11000000	        -26.11068606	         -8.54614124	         -3.04237721	        -11.97394279	         34.83857775	          2.81339423	         84.04488544	         37.31543530	        -32.18765004	
          5.12000000	        -25.66179897	         -8.66889078	         -2.51677218	        -11.98380873	         34.48175032	          2.95559551	         83.66731393	         36.83984650	        -32.02820652	
          5.13000000	        -25.17168569	         -8.78901564	         -1.91845736	        -11.98917149	         34.12690148	          3.09066064	         83.28805879	         36.35489467	        -31.85984933	
          5.14000000	        -24.62949218	         -8.90668615	         -1.22904944	        -11.98949509	         33.77350728	          3.21685230	         82.91282738	         35.85946166	        -31.68158117	
          5.15000000	        -23.99683921	         -9.02475014	         -0.38109535	        -11.98491444	         33.42294179	          3.33207356	         82.54388900	         35.35369114	        -31.49094603	
          5.16000000	        -23.04930080	         -9.16061519	          1.01322968	        -11.97526755	         33.07446499	          3.42992522	         82.18552706	         34.83811050	        -31.28550152	
          5.17000000	        -23.13474120	         -9.20764953	          0.62529084	        -11.96102893	         32.73107937	          3.51866043	         81.83654787	         34.31536972	        -31.06423043	
          5.18000000	        -23.21116400	         -9.24937394	          0.25714898	        -11.94275568	         32.39402606	          3.60292571	         81.49386486	         33.78682642	        -30.82609855	
          5.19000000	        -23.28431083	         -9.28538180	         -0.10068463	        -11.92061112	         32.06395144	          3.68268400	         81.15771328	         33.25283272	        -30.57050881	
